<?xml version="1.0" encoding="UTF-8" standalone="no"?>
<svg
   xmlns:dc="http://purl.org/dc/elements/1.1/"
   xmlns:cc="http://creativecommons.org/ns#"
   xmlns:rdf="http://www.w3.org/1999/02/22-rdf-syntax-ns#"
   xmlns:svg="http://www.w3.org/2000/svg"
   xmlns="http://www.w3.org/2000/svg"
   xmlns:sodipodi="http://sodipodi.sourceforge.net/DTD/sodipodi-0.dtd"
   xmlns:inkscape="http://www.inkscape.org/namespaces/inkscape"
   data-brackets-id="17"
   id="svg_banner-light"
   viewBox="0 0 852.07404 119.5014"
   version="1.1"
   sodipodi:docname="svg_banner-light.svg"
   width="852.07404"
   height="119.5014"
   inkscape:version="0.92.4 (5da689c313, 2019-01-14)">
  <metadata
     id="metadata143">
    <rdf:RDF>
      <cc:Work
         rdf:about="">
        <dc:format>image/svg+xml</dc:format>
        <dc:type
           rdf:resource="http://purl.org/dc/dcmitype/StillImage" />
        <dc:title></dc:title>
      </cc:Work>
    </rdf:RDF>
  </metadata>
  <sodipodi:namedview
     pagecolor="#ffffff"
     bordercolor="#666666"
     borderopacity="1"
     objecttolerance="10"
     gridtolerance="10"
     guidetolerance="10"
     inkscape:pageopacity="0"
     inkscape:pageshadow="2"
     inkscape:window-width="782"
     inkscape:window-height="480"
     id="namedview141"
     showgrid="false"
     fit-margin-top="0"
     fit-margin-left="0"
     fit-margin-right="0"
     fit-margin-bottom="0"
     inkscape:zoom="0.23105461"
     inkscape:cx="292.75527"
     inkscape:cy="210.65792"
     inkscape:window-x="70"
     inkscape:window-y="27"
     inkscape:window-maximized="0"
     inkscape:current-layer="svg_banner-light" />
  <defs
     id="defs2" />
  <g
     transform="matrix(68.8935,0,0,68.8935,64.179981,59.750701)"
     class="technokrat-logo"
     id="g138">
    <g
       class="cube"
       id="g114">
      <g
         class="mini-cube-0"
         id="g12">
        <polyline
           points="-0.8930000000000001,0.022516660498395402,-0.8180000000000002,0.022516660498395402,-0.7805000000000001,-0.04243524478543753,-0.8180000000000001,-0.10738715006927035,-0.893,-0.10738715006927035,-0.9305000000000001,-0.04243524478543742,-0.8930000000000001,0.022516660498395402"
           style="fill:#f44242;stroke:#f44242;stroke-width:0.0025;stroke-linecap:round;stroke-linejoin:bevel"
           class="index-0"
           id="polyline4" />
        <polyline
           points="-0.893,-0.10738715006927035,-0.9305000000000001,-0.04243524478543742,-0.8930000000000001,0.022516660498395402,-0.8555,-0.04243524478543753,-0.893,-0.10738715006927035"
           style="fill:#f24040;stroke:#f24040;stroke-width:0.0025;stroke-linecap:round;stroke-linejoin:bevel"
           class="index-1"
           id="polyline6" />
        <polyline
           points="-0.7805000000000001,-0.04243524478543753,-0.8180000000000001,-0.10738715006927035,-0.893,-0.10738715006927035,-0.8555,-0.04243524478543753,-0.7805000000000001,-0.04243524478543753"
           style="fill:#fd4b48;stroke:#fd4b48;stroke-width:0.0025;stroke-linecap:round;stroke-linejoin:bevel"
           class="index-2"
           id="polyline8" />
        <polyline
           points="-0.8930000000000001,0.022516660498395402,-0.8180000000000002,0.022516660498395402,-0.7805000000000001,-0.04243524478543753,-0.8555,-0.04243524478543753,-0.8930000000000001,0.022516660498395402"
           style="fill:#f84645;stroke:#f84645;stroke-width:0.0025;stroke-linecap:round;stroke-linejoin:bevel"
           class="index-3"
           id="polyline10" />
      </g>
      <g
         class="mini-cube-1"
         id="g22">
        <polyline
           points="-0.7535000000000001,-0.23642493523315178,-0.6785000000000001,-0.23642493523315178,-0.6410000000000001,-0.30137684051698466,-0.6785000000000001,-0.36632874580081753,-0.7535000000000002,-0.36632874580081753,-0.7910000000000001,-0.30137684051698466,-0.7535000000000001,-0.23642493523315178"
           style="fill:#f44242;stroke:#f44242;stroke-width:0.0025;stroke-linecap:round;stroke-linejoin:bevel"
           class="index-0"
           id="polyline14" />
        <polyline
           points="-0.7535000000000002,-0.36632874580081753,-0.7910000000000001,-0.30137684051698466,-0.7535000000000001,-0.23642493523315178,-0.7160000000000001,-0.30137684051698466,-0.7535000000000002,-0.36632874580081753"
           style="fill:#f24040;stroke:#f24040;stroke-width:0.0025;stroke-linecap:round;stroke-linejoin:bevel"
           class="index-1"
           id="polyline16" />
        <polyline
           points="-0.6410000000000001,-0.30137684051698466,-0.6785000000000001,-0.36632874580081753,-0.7535000000000002,-0.36632874580081753,-0.7160000000000001,-0.30137684051698466,-0.6410000000000001,-0.30137684051698466"
           style="fill:#fd4b48;stroke:#fd4b48;stroke-width:0.0025;stroke-linecap:round;stroke-linejoin:bevel"
           class="index-2"
           id="polyline18" />
        <polyline
           points="-0.7535000000000001,-0.23642493523315178,-0.6785000000000001,-0.23642493523315178,-0.6410000000000001,-0.30137684051698466,-0.7160000000000001,-0.30137684051698466,-0.7535000000000001,-0.23642493523315178"
           style="fill:#f84645;stroke:#f84645;stroke-width:0.0025;stroke-linecap:round;stroke-linejoin:bevel"
           class="index-3"
           id="polyline20" />
      </g>
      <g
         class="mini-cube-2"
         id="g32">
        <polyline
           points="-0.49050000000000005,-0.7040786532767486,-0.4155,-0.7040786532767486,-0.37799999999999995,-0.7690305585605814,-0.41550000000000004,-0.8339824638444142,-0.4905,-0.8339824638444142,-0.528,-0.7690305585605814,-0.49050000000000005,-0.7040786532767486"
           style="fill:#f44242;stroke:#f44242;stroke-width:0.0025;stroke-linecap:round;stroke-linejoin:bevel"
           class="index-0"
           id="polyline24" />
        <polyline
           points="-0.4905,-0.8339824638444142,-0.528,-0.7690305585605814,-0.49050000000000005,-0.7040786532767486,-0.453,-0.7690305585605814,-0.4905,-0.8339824638444142"
           style="fill:#f24040;stroke:#f24040;stroke-width:0.0025;stroke-linecap:round;stroke-linejoin:bevel"
           class="index-1"
           id="polyline26" />
        <polyline
           points="-0.37799999999999995,-0.7690305585605814,-0.41550000000000004,-0.8339824638444142,-0.4905,-0.8339824638444142,-0.453,-0.7690305585605814,-0.37799999999999995,-0.7690305585605814"
           style="fill:#fd4b48;stroke:#fd4b48;stroke-width:0.0025;stroke-linecap:round;stroke-linejoin:bevel"
           class="index-2"
           id="polyline28" />
        <polyline
           points="-0.49050000000000005,-0.7040786532767486,-0.4155,-0.7040786532767486,-0.37799999999999995,-0.7690305585605814,-0.453,-0.7690305585605814,-0.49050000000000005,-0.7040786532767486"
           style="fill:#f84645;stroke:#f84645;stroke-width:0.0025;stroke-linecap:round;stroke-linejoin:bevel"
           class="index-3"
           id="polyline30" />
      </g>
      <g
         class="mini-cube-3"
         id="g42">
        <polyline
           points="-0.62,-0.4676537180435969,-0.545,-0.4676537180435969,-0.5075000000000001,-0.5326056233274298,-0.545,-0.5975575286112625,-0.6200000000000001,-0.5975575286112625,-0.6575000000000001,-0.5326056233274297,-0.62,-0.4676537180435969"
           style="fill:#f44242;stroke:#f44242;stroke-width:0.0025;stroke-linecap:round;stroke-linejoin:bevel"
           class="index-0"
           id="polyline34" />
        <polyline
           points="-0.6200000000000001,-0.5975575286112625,-0.6575000000000001,-0.5326056233274297,-0.62,-0.4676537180435969,-0.5825,-0.5326056233274298,-0.6200000000000001,-0.5975575286112625"
           style="fill:#f24040;stroke:#f24040;stroke-width:0.0025;stroke-linecap:round;stroke-linejoin:bevel"
           class="index-1"
           id="polyline36" />
        <polyline
           points="-0.5075000000000001,-0.5326056233274298,-0.545,-0.5975575286112625,-0.6200000000000001,-0.5975575286112625,-0.5825,-0.5326056233274298,-0.5075000000000001,-0.5326056233274298"
           style="fill:#fd4b48;stroke:#fd4b48;stroke-width:0.0025;stroke-linecap:round;stroke-linejoin:bevel"
           class="index-2"
           id="polyline38" />
        <polyline
           points="-0.62,-0.4676537180435969,-0.545,-0.4676537180435969,-0.5075000000000001,-0.5326056233274298,-0.5825,-0.5326056233274298,-0.62,-0.4676537180435969"
           style="fill:#f84645;stroke:#f84645;stroke-width:0.0025;stroke-linecap:round;stroke-linejoin:bevel"
           class="index-3"
           id="polyline40" />
      </g>
      <g
         class="mini-cube-4"
         id="g52">
        <polyline
           points="-0.7995000000000001,0.2762621038072359,-0.6995,0.2762621038072359,-0.6495000000000001,0.1896595634287921,-0.6995,0.10305702305034825,-0.7995,0.10305702305034825,-0.8495,0.1896595634287921,-0.7995000000000001,0.2762621038072359"
           style="fill:#f44242;stroke:#f44242;stroke-width:0.0025;stroke-linecap:round;stroke-linejoin:bevel"
           class="index-0"
           id="polyline44" />
        <polyline
           points="-0.7995,0.10305702305034825,-0.8495,0.1896595634287921,-0.7995000000000001,0.2762621038072359,-0.7495,0.1896595634287921,-0.7995,0.10305702305034825"
           style="fill:#f24040;stroke:#f24040;stroke-width:0.0025;stroke-linecap:round;stroke-linejoin:bevel"
           class="index-1"
           id="polyline46" />
        <polyline
           points="-0.6495000000000001,0.1896595634287921,-0.6995,0.10305702305034825,-0.7995,0.10305702305034825,-0.7495,0.1896595634287921,-0.6495000000000001,0.1896595634287921"
           style="fill:#fd4b48;stroke:#fd4b48;stroke-width:0.0025;stroke-linecap:round;stroke-linejoin:bevel"
           class="index-2"
           id="polyline48" />
        <polyline
           points="-0.7995000000000001,0.2762621038072359,-0.6995,0.2762621038072359,-0.6495000000000001,0.1896595634287921,-0.7495,0.1896595634287921,-0.7995000000000001,0.2762621038072359"
           style="fill:#f84645;stroke:#f84645;stroke-width:0.0025;stroke-linecap:round;stroke-linejoin:bevel"
           class="index-3"
           id="polyline50" />
      </g>
      <g
         class="mini-cube-5"
         id="g62">
        <polyline
           points="-0.6545000000000001,0.01991858428704213,-0.5545,0.01991858428704213,-0.5045,-0.06668395609140176,-0.5545,-0.15328649646984557,-0.6545,-0.15328649646984557,-0.7045,-0.06668395609140168,-0.6545000000000001,0.01991858428704213"
           style="fill:#f44242;stroke:#f44242;stroke-width:0.0025;stroke-linecap:round;stroke-linejoin:bevel"
           class="index-0"
           id="polyline54" />
        <polyline
           points="-0.6545,-0.15328649646984557,-0.7045,-0.06668395609140168,-0.6545000000000001,0.01991858428704213,-0.6045,-0.06668395609140176,-0.6545,-0.15328649646984557"
           style="fill:#f24040;stroke:#f24040;stroke-width:0.0025;stroke-linecap:round;stroke-linejoin:bevel"
           class="index-1"
           id="polyline56" />
        <polyline
           points="-0.5045,-0.06668395609140176,-0.5545,-0.15328649646984557,-0.6545,-0.15328649646984557,-0.6045,-0.06668395609140176,-0.5045,-0.06668395609140176"
           style="fill:#fd4b48;stroke:#fd4b48;stroke-width:0.0025;stroke-linecap:round;stroke-linejoin:bevel"
           class="index-2"
           id="polyline58" />
        <polyline
           points="-0.6545000000000001,0.01991858428704213,-0.5545,0.01991858428704213,-0.5045,-0.06668395609140176,-0.6045,-0.06668395609140176,-0.6545000000000001,0.01991858428704213"
           style="fill:#f84645;stroke:#f84645;stroke-width:0.0025;stroke-linecap:round;stroke-linejoin:bevel"
           class="index-3"
           id="polyline60" />
      </g>
      <g
         class="mini-cube-6"
         id="g72">
        <polyline
           points="-0.5155,-0.22430057958016952,-0.41550000000000004,-0.22430057958016952,-0.36550000000000005,-0.31090311995861336,-0.4155,-0.39750566033705714,-0.5155000000000001,-0.39750566033705714,-0.5655,-0.3109031199586133,-0.5155,-0.22430057958016952"
           style="fill:#f44242;stroke:#f44242;stroke-width:0.0025;stroke-linecap:round;stroke-linejoin:bevel"
           class="index-0"
           id="polyline64" />
        <polyline
           points="-0.5155000000000001,-0.39750566033705714,-0.5655,-0.3109031199586133,-0.5155,-0.22430057958016952,-0.4655,-0.31090311995861336,-0.5155000000000001,-0.39750566033705714"
           style="fill:#f24040;stroke:#f24040;stroke-width:0.0025;stroke-linecap:round;stroke-linejoin:bevel"
           class="index-1"
           id="polyline66" />
        <polyline
           points="-0.36550000000000005,-0.31090311995861336,-0.4155,-0.39750566033705714,-0.5155000000000001,-0.39750566033705714,-0.4655,-0.31090311995861336,-0.36550000000000005,-0.31090311995861336"
           style="fill:#fd4b48;stroke:#fd4b48;stroke-width:0.0025;stroke-linecap:round;stroke-linejoin:bevel"
           class="index-2"
           id="polyline68" />
        <polyline
           points="-0.5155,-0.22430057958016952,-0.41550000000000004,-0.22430057958016952,-0.36550000000000005,-0.31090311995861336,-0.4655,-0.31090311995861336,-0.5155,-0.22430057958016952"
           style="fill:#f84645;stroke:#f84645;stroke-width:0.0025;stroke-linecap:round;stroke-linejoin:bevel"
           class="index-3"
           id="polyline70" />
      </g>
      <g
         class="mini-cube-7"
         id="g82">
        <polyline
           points="-0.2545,-0.685026094393491,-0.15450000000000003,-0.685026094393491,-0.10450000000000004,-0.7716286347719349,-0.15450000000000008,-0.8582311751503788,-0.25450000000000006,-0.8582311751503788,-0.30450000000000005,-0.771628634771935,-0.2545,-0.685026094393491"
           style="fill:#f44242;stroke:#f44242;stroke-width:0.0025;stroke-linecap:round;stroke-linejoin:bevel"
           class="index-0"
           id="polyline74" />
        <polyline
           points="-0.25450000000000006,-0.8582311751503788,-0.30450000000000005,-0.771628634771935,-0.2545,-0.685026094393491,-0.20450000000000002,-0.7716286347719349,-0.25450000000000006,-0.8582311751503788"
           style="fill:#f24040;stroke:#f24040;stroke-width:0.0025;stroke-linecap:round;stroke-linejoin:bevel"
           class="index-1"
           id="polyline76" />
        <polyline
           points="-0.10450000000000004,-0.7716286347719349,-0.15450000000000008,-0.8582311751503788,-0.25450000000000006,-0.8582311751503788,-0.20450000000000002,-0.7716286347719349,-0.10450000000000004,-0.7716286347719349"
           style="fill:#fd4b48;stroke:#fd4b48;stroke-width:0.0025;stroke-linecap:round;stroke-linejoin:bevel"
           class="index-2"
           id="polyline78" />
        <polyline
           points="-0.2545,-0.685026094393491,-0.15450000000000003,-0.685026094393491,-0.10450000000000004,-0.7716286347719349,-0.20450000000000002,-0.7716286347719349,-0.2545,-0.685026094393491"
           style="fill:#f84645;stroke:#f84645;stroke-width:0.0025;stroke-linecap:round;stroke-linejoin:bevel"
           class="index-3"
           id="polyline80" />
      </g>
      <g
         class="mini-cube-8"
         id="g92">
        <polyline
           points="-0.37999999999999995,-0.45899346400575247,-0.27999999999999997,-0.45899346400575247,-0.22999999999999998,-0.5455960043841964,-0.28,-0.6321985447626403,-0.38,-0.6321985447626403,-0.43,-0.5455960043841963,-0.37999999999999995,-0.45899346400575247"
           style="fill:#f44242;stroke:#f44242;stroke-width:0.0025;stroke-linecap:round;stroke-linejoin:bevel"
           class="index-0"
           id="polyline84" />
        <polyline
           points="-0.38,-0.6321985447626403,-0.43,-0.5455960043841963,-0.37999999999999995,-0.45899346400575247,-0.32999999999999996,-0.5455960043841964,-0.38,-0.6321985447626403"
           style="fill:#f24040;stroke:#f24040;stroke-width:0.0025;stroke-linecap:round;stroke-linejoin:bevel"
           class="index-1"
           id="polyline86" />
        <polyline
           points="-0.22999999999999998,-0.5455960043841964,-0.28,-0.6321985447626403,-0.38,-0.6321985447626403,-0.32999999999999996,-0.5455960043841964,-0.22999999999999998,-0.5455960043841964"
           style="fill:#fd4b48;stroke:#fd4b48;stroke-width:0.0025;stroke-linecap:round;stroke-linejoin:bevel"
           class="index-2"
           id="polyline88" />
        <polyline
           points="-0.37999999999999995,-0.45899346400575247,-0.27999999999999997,-0.45899346400575247,-0.22999999999999998,-0.5455960043841964,-0.32999999999999996,-0.5455960043841964,-0.37999999999999995,-0.45899346400575247"
           style="fill:#f84645;stroke:#f84645;stroke-width:0.0025;stroke-linecap:round;stroke-linejoin:bevel"
           class="index-3"
           id="polyline90" />
      </g>
      <g
         class="big_cube"
         id="g112">
        <polyline
           points="-0.3214285714285714,-0.06185895741317424,-0.3928571428571428,-0.1855768722395226,0.10714285714285718,-0.1855768722395226,0.1785714285714286,-0.06185895741317424,-0.3214285714285714,-0.06185895741317424"
           style="fill:#fd4b48;stroke:#fd4b48;stroke-width:0.0025;stroke-linecap:round;stroke-linejoin:bevel"
           class="index-0"
           id="polyline94" />
        <polyline
           points="-0.4642857142857143,0.18557687223952257,-0.5357142857142857,0.061858957413174216,-0.03571428571428573,0.061858957413174216,0.035714285714285705,0.18557687223952257,-0.4642857142857143,0.18557687223952257"
           style="fill:#fd4b48;stroke:#fd4b48;stroke-width:0.0025;stroke-linecap:round;stroke-linejoin:bevel"
           class="index-1"
           id="polyline96" />
        <polyline
           points="-0.6071428571428572,0.43301270189221935,-0.6785714285714286,0.309294787065871,-0.1785714285714286,0.309294787065871,-0.10714285714285716,0.43301270189221935,-0.6071428571428572,0.43301270189221935"
           style="fill:#fd4b48;stroke:#fd4b48;stroke-width:0.0025;stroke-linecap:round;stroke-linejoin:bevel"
           class="index-2"
           id="polyline98" />
        <polyline
           points="0,-0.8660254037844386,0.12500000000000003,-0.649519052838329,0.06250000000000003,-0.5412658773652741,-0.0625,-0.7577722283113838,0,-0.8660254037844386"
           style="fill:#f24040;stroke:#f24040;stroke-width:0.0025;stroke-linecap:round;stroke-linejoin:bevel"
           class="index-3"
           id="polyline100" />
        <polyline
           points="-0.12499999999999994,-0.649519052838329,5.551115123125783e-17,-0.43301270189221935,-0.062499999999999944,-0.3247595264191645,-0.18749999999999994,-0.5412658773652741,-0.12499999999999994,-0.649519052838329"
           style="fill:#f24040;stroke:#f24040;stroke-width:0.0025;stroke-linecap:round;stroke-linejoin:bevel"
           class="index-4"
           id="polyline102" />
        <polyline
           points="-0.5,0.8660254037844386,0.49999999999999994,0.8660254037844386,1,-5.551115123125783e-17,0.5,-0.8660254037844386,0,-0.8660254037844386,0.12500000000000003,-0.649519052838329,-0.12499999999999994,-0.649519052838329,5.551115123125783e-17,-0.43301270189221935,-0.24999999999999994,-0.43301270189221935,-0.3214285714285714,-0.30929478706587094,-0.24999999999999997,-0.18557687223952257,-0.3214285714285714,-0.06185895741317424,-0.3928571428571428,-0.1855768722395226,-0.4642857142857143,-0.06185895741317417,-0.39285714285714285,0.061858957413174195,-0.4642857142857143,0.18557687223952257,-0.5357142857142857,0.061858957413174216,-0.6071428571428572,0.1855768722395226,-0.5357142857142857,0.309294787065871,-0.6071428571428572,0.43301270189221935,-0.6785714285714286,0.309294787065871,-0.75,0.43301270189221935,-0.5,0.8660254037844386"
           style="fill:#f44242;stroke:#f44242;stroke-width:0.0025;stroke-linecap:round;stroke-linejoin:bevel"
           class="index-5"
           id="polyline104" />
        <polyline
           points="-0.24999999999999994,-0.43301270189221935,-0.3214285714285714,-0.30929478706587094,-0.24999999999999997,-0.18557687223952257,-0.3214285714285714,-0.06185895741317424,-0.3928571428571428,-0.1855768722395226,-0.4642857142857143,-0.06185895741317417,-0.39285714285714285,0.061858957413174195,-0.4642857142857143,0.18557687223952257,-0.5357142857142857,0.061858957413174216,-0.6071428571428572,0.1855768722395226,-0.5357142857142857,0.309294787065871,-0.6071428571428572,0.43301270189221935,-0.6785714285714286,0.309294787065871,-0.75,0.43301270189221935,-0.5,0.8660254037844386,1.1102230246251565e-16,-5.551115123125783e-17,-0.24999999999999994,-0.43301270189221935"
           style="fill:#f24040;stroke:#f24040;stroke-width:0.0025;stroke-linecap:round;stroke-linejoin:bevel"
           class="index-6"
           id="polyline106" />
        <polyline
           points="1,-5.551115123125783e-17,0.5,-0.8660254037844386,0,-0.8660254037844386,0.12500000000000003,-0.649519052838329,-0.12499999999999994,-0.649519052838329,5.551115123125783e-17,-0.43301270189221935,-0.24999999999999994,-0.43301270189221935,1.1102230246251565e-16,-5.551115123125783e-17,1,-5.551115123125783e-17"
           style="fill:#fd4b48;stroke:#fd4b48;stroke-width:0.0025;stroke-linecap:round;stroke-linejoin:bevel"
           class="index-7"
           id="polyline108" />
        <polyline
           points="-0.5,0.8660254037844386,0.49999999999999994,0.8660254037844386,1,-5.551115123125783e-17,1.1102230246251565e-16,-5.551115123125783e-17,-0.5,0.8660254037844386"
           style="fill:#f84645;stroke:#f84645;stroke-width:0.0025;stroke-linecap:round;stroke-linejoin:bevel"
           class="index-8"
           id="polyline110" />
      </g>
    </g>
    <g
       style="fill:#333333"
       id="g136">
      <path
         d="m 1.7629,0.37 h 0.1056 v -0.67980001 h 0.2508 v -0.099 H 1.5121 v 0.099 h 0.2508 z"
         id="path116"
         inkscape:connector-curvature="0" />
      <path
         d="M 3.0767797,0.1456 V 0.1104 c 0,-0.1342 -0.0704,-0.27500001 -0.2541,-0.27500001 -0.1562,0 -0.2695,0.11770001 -0.2695,0.27390001 0,0.1551 0.1034,0.27390001 0.2684,0.27390001 0.1001,0 0.176,-0.0352 0.231,-0.10670001 l -0.0748,-0.0572 c -0.0385,0.0473 -0.0825,0.0781 -0.143,0.0781 -0.0913,0 -0.176,-0.0605 -0.176,-0.1518 z m -0.418,-0.0792 c 0,-0.0693 0.0638,-0.15180001 0.1617,-0.15180001 0.1001,0 0.1485,0.06490001 0.1507,0.15180001 z"
         id="path118"
         inkscape:connector-curvature="0" />
      <path
         d="m 4.1439843,-0.08100001 c -0.0517,-0.0561 -0.1243,-0.0825 -0.2002,-0.0825 -0.1628,0 -0.2728,0.11440001 -0.2728,0.27500001 0,0.1606 0.1122,0.27170001 0.2728,0.27170001 0.0759,0 0.1463,-0.0231 0.198,-0.0803 l -0.0704,-0.0704 c -0.033,0.0385 -0.0715,0.0583 -0.1265,0.0583 -0.1023,0 -0.1683,-0.0792 -0.1683,-0.1771 0,-0.0979 0.055,-0.1848 0.1628,-0.1848 0.055,0 0.0935,0.0198 0.1298,0.0583 z"
         id="path120"
         inkscape:connector-curvature="0" />
      <path
         d="m 4.7269485,0.37 h 0.099 V 0.1016 c 0,-0.121 0.0627,-0.1738 0.1452,-0.1738 0.0627,0 0.1188,0.0363 0.1188,0.1342 V 0.37 h 0.099 V 0.0345 c 0,-0.13860001 -0.088,-0.19910001 -0.1892,-0.19910001 -0.0803,0 -0.1463,0.0385 -0.1716,0.09350001 h -0.0022 v -0.39050001 h -0.099 z"
         id="path122"
         inkscape:connector-curvature="0" />
      <path
         d="m 5.8392529,0.37 h 0.099 V 0.1016 c 0,-0.121 0.0627,-0.1738 0.1452,-0.1738 0.0627,0 0.1188,0.0363 0.1188,0.1342 V 0.37 h 0.099 V 0.0345 c 0,-0.13860001 -0.088,-0.19910001 -0.1892,-0.19910001 -0.0803,0 -0.1463,0.0385 -0.1716,0.09350001 h -0.0022 v -0.08030001 h -0.099 z"
         id="path124"
         inkscape:connector-curvature="0" />
      <path
         d="m 7.0318576,0.1093 c 0,-0.1056 0.066,-0.1815 0.1716,-0.1815 0.1056,0 0.1716,0.0759 0.1716,0.1815 0,0.1056 -0.066,0.1815 -0.1716,0.1815 -0.1056,0 -0.1716,-0.0759 -0.1716,-0.1815 z m -0.1056,0 c 0,0.1518 0.1221,0.27390001 0.2772,0.27390001 0.1551,0 0.2772,-0.12210001 0.2772,-0.27390001 0,-0.1518 -0.1221,-0.27390001 -0.2772,-0.27390001 -0.1551,0 -0.2772,0.12210001 -0.2772,0.27390001 z"
         id="path126"
         inkscape:connector-curvature="0" />
      <path
         d="m 8.1046829,0.37 h 0.099 V 0.0994 l 0.242,0.2706 h 0.1408 l -0.264,-0.2838 0.2431,-0.23650001 h -0.1375 L 8.2036829,0.0752 v -0.53680001 h -0.099 z"
         id="path128"
         inkscape:connector-curvature="0" />
      <path
         d="m 9.176167,0.37 h 0.099 V 0.1082 c 0,-0.1144 0.0528,-0.1672 0.1496,-0.1672 0.0154,0 0.0319,0.0033 0.0484,0.0077 l 0.0044,-0.10670001 c -0.0132,-0.0044 -0.0286,-0.0066 -0.044,-0.0066 -0.0649,0 -0.1309,0.0385 -0.1562,0.09350001 h -0.0022 v -0.08030001 h -0.099 z"
         id="path130"
         inkscape:connector-curvature="0" />
      <path
         d="m 10.143821,-0.026 c 0.0363,-0.0275 0.0726,-0.05940001 0.1485,-0.05940001 0.0847,0 0.124301,0.05610001 0.124301,0.11000001 v 0.022 h -0.0726 c -0.158401,0 -0.287101,0.0462 -0.287101,0.1804 0,0.1012 0.0836,0.15620001 0.1804,0.15620001 0.0792,0 0.138601,-0.0253 0.182601,-0.0924 h 0.0022 c 0,0.0264 0.0011,0.0528 0.0033,0.0792 h 0.088 c -0.0033,-0.0275 -0.0044,-0.0583 -0.0044,-0.0946 v -0.2662 C 10.509022,-0.081 10.445222,-0.1646 10.291221,-0.1646 c -0.0726,0 -0.1518,0.0253 -0.2068,0.077 z m 0.272801,0.1452 v 0.033 c 0,0.0704 -0.0385,0.1518 -0.148501,0.1518 -0.0682,0 -0.1122,-0.0253 -0.1122,-0.0847 0,-0.0836 0.1144,-0.1001 0.207901,-0.1001 z"
         id="path132"
         inkscape:connector-curvature="0" />
      <path
         d="m 11.433106,-0.15140001 h -0.1419 v -0.1463 h -0.099 v 0.1463 h -0.1144 V -0.0656 h 0.1144 v 0.2717 c 0,0.0836 0.0022,0.17710001 0.1551,0.17710001 0.0198,0 0.066,-0.0044 0.0891,-0.0176 v -0.0902 c -0.0198,0.0121 -0.0473,0.0154 -0.0704,0.0154 -0.0748,0 -0.0748,-0.0616 -0.0748,-0.1199 v -0.2365 h 0.1419 z"
         id="path134"
         inkscape:connector-curvature="0" />
    </g>
  </g>
</svg>
